<?xml version="1.0" ?><svg height="1270mm" id="svg2" version="1.1" viewBox="0 0 4500 4500" width="1270mm" xmlns="http://www.w3.org/2000/svg" xmlns:cc="http://creativecommons.org/ns#" xmlns:dc="http://purl.org/dc/elements/1.1/" xmlns:inkscape="http://www.inkscape.org/namespaces/inkscape" xmlns:rdf="http://www.w3.org/1999/02/22-rdf-syntax-ns#" xmlns:sodipodi="http://sodipodi.sourceforge.net/DTD/sodipodi-0.dtd" xmlns:svg="http://www.w3.org/2000/svg"><defs id="defs4"/><g id="layer1" transform="translate(5374.6106,7037.8337)"><g id="g5592" transform="translate(-8117.1583,-8405.3598)"><path d="m 10196.836,5969.0762 c -41.42,0 -74.996,33.5804 -75,75 l 0,1433.8613 c 0,19.5916 7.667,38.4053 21.359,52.418 l 490.35,501.7675 -64.1,1106.8223 c -0.306,5.2822 -0.05,10.5819 0.758,15.8106 19.056,123.0709 77.995,238.1413 166.735,325.5195 54.477,53.6417 119.311,96.1991 190.195,124.8457 18.661,7.5412 39.571,7.266 58.027,-0.7637 111.567,-48.5471 205.276,-133.3893 264.641,-239.5957 31.834,-56.9536 53.506,-119.2704 63.879,-183.6875 0.876,-5.441 1.15,-10.962 0.816,-16.4629 l -68.934,-1136.9394 502.881,-459.8164 c 15.538,-14.209 24.388,-34.2944 24.389,-55.3496 l 0,-1468.4297 c 0,-41.4196 -33.58,-74.9959 -75,-75 z m 75,150 132.693,0 0,514.5566 -132.693,0 z m 282.693,0 155.375,0 0,514.5566 -155.375,0 z m 305.375,0 155.375,0 0,514.5566 -155.375,0 z m 305.375,0 155.375,0 0,514.5566 -155.375,0 z m 305.375,0 152.178,0 0,514.8027 c -2.17,-0.1767 -4.347,-0.2588 -6.525,-0.2461 l -145.653,0 z m 152.178,664.3222 0,452.3868 c -2.17,-0.1767 -4.347,-0.2588 -6.525,-0.2461 l -1344.471,0 0,-451.9063 1344.471,0 c 2.177,0.017 4.354,-0.062 6.525,-0.2344 z m 0,601.9063 0,94.1523 -504.908,461.67 c -16.709,15.2799 -25.622,37.2899 -24.252,59.8906 l 70.551,1163.6328 c -8,44.3619 -23.374,87.5988 -45.356,126.9258 -37.748,67.5335 -96.297,124.5587 -164.721,161.2343 -41.179,-20.3579 -79.298,-47.2505 -111.966,-79.4179 -63.487,-62.5135 -107.288,-146.5832 -122.485,-234.4395 l 65.514,-1131.2246 c 1.219,-21.063 -6.489,-41.6655 -21.234,-56.7558 l -492.139,-503.5977 0,-61.8359 1344.471,0 c 2.177,0.017 4.354,-0.062 6.525,-0.2344 z" id="path4571" style="color:#000000;font-style:normal;font-variant:normal;font-weight:normal;font-stretch:normal;font-size:medium;line-height:normal;font-family:sans-serif;text-indent:0;text-align:start;text-decoration:none;text-decoration-line:none;text-decoration-style:solid;text-decoration-color:#000000;letter-spacing:normal;word-spacing:normal;text-transform:none;direction:ltr;block-progression:tb;writing-mode:lr-tb;baseline-shift:baseline;text-anchor:start;white-space:normal;clip-rule:nonzero;display:inline;overflow:visible;visibility:visible;opacity:1;isolation:auto;mix-blend-mode:normal;color-interpolation:sRGB;color-interpolation-filters:linearRGB;solid-color:#000000;solid-opacity:1;fill:#6c6da7;fill-opacity:1;fill-rule:evenodd;stroke:none;stroke-width:150;stroke-linecap:round;stroke-linejoin:round;stroke-miterlimit:4;stroke-dasharray:none;stroke-dashoffset:0;stroke-opacity:1;color-rendering:auto;image-rendering:auto;shape-rendering:auto;text-rendering:auto;enable-background:accumulate" transform="translate(-5954.7863,-4172.3044)"/><path d="m 11622.832,7385.3047 a 75.0075,75.0075 0 0 1 -6.525,0.2344 l -1344.471,0 0,61.8359 492.139,503.5977 a 75.0075,75.0075 0 0 1 21.234,56.7558 l -65.514,1131.2246 c 15.197,87.8563 58.998,171.926 122.485,234.4395 32.668,32.1674 70.787,59.06 111.966,79.4179 68.424,-36.6756 126.973,-93.7008 164.721,-161.2343 21.982,-39.327 37.356,-82.5639 45.356,-126.9258 l -70.551,-1163.6328 a 75.0075,75.0075 0 0 1 24.252,-59.8906 l 504.908,-461.67 0,-94.1523 z m -684.527,1576.4219 a 75.0075,75.0075 0 0 1 76.129,76.0605 l 0,145.1914 a 75.0075,75.0075 0 1 1 -150,0 l 0,-145.1914 a 75.0075,75.0075 0 0 1 73.871,-76.0605 z" id="path5583" style="fill:#f2a2bb;fill-opacity:1;fill-rule:evenodd;stroke:none;stroke-width:1px;stroke-linecap:butt;stroke-linejoin:miter;stroke-opacity:1" transform="translate(-5954.7863,-4172.3044)"/></g></g></svg>