<?xml version="1.0" ?><svg height="1270mm" id="svg2" version="1.1" viewBox="0 0 4500 4500" width="1270mm" xmlns="http://www.w3.org/2000/svg" xmlns:cc="http://creativecommons.org/ns#" xmlns:dc="http://purl.org/dc/elements/1.1/" xmlns:inkscape="http://www.inkscape.org/namespaces/inkscape" xmlns:rdf="http://www.w3.org/1999/02/22-rdf-syntax-ns#" xmlns:sodipodi="http://sodipodi.sourceforge.net/DTD/sodipodi-0.dtd" xmlns:svg="http://www.w3.org/2000/svg"><defs id="defs4"/><g id="layer1" transform="translate(5374.6106,7037.8337)"><g id="g5532" transform="translate(-26276.987,-3754.798)"><path d="m 29368.215,1450.2793 a 75.0075,75.0075 0 0 0 -51.49,22.4492 l -577.848,589.1035 c -88.58,-37.8649 -184.267,-57.5036 -280.326,-57.9453 -34.883,-0.1604 -69.813,2.2087 -104.469,7.1524 a 75.0075,75.0075 0 0 0 -1.33,0.2031 c -426.661,68.6933 -828.03,337.3583 -950.838,757.5137 a 75.0075,75.0075 0 0 0 -3.016,21.041 l 0,1469.957 a 75.0075,75.0075 0 0 0 0.282,6.4551 c 3.235,37.44 -2.856,85.7233 -3.653,141.3828 -0.797,55.6595 5.668,122.5523 46.098,183.9141 a 75.0075,75.0075 0 0 0 17.953,18.9785 c 84.95,62.9973 169.903,125.9949 254.854,188.9922 a 75.0075,75.0075 0 0 0 16.127,9.1132 c 131.089,53.9535 262.343,-12.7754 347.58,-81.6308 a 75.0075,75.0075 0 0 0 27.871,-58.3418 l 0,-1628.7598 1219.135,1250.5977 a 75.0075,75.0075 0 0 0 106.904,0.5137 l 1365.012,-1373.5977 a 75.0075,75.0075 0 0 0 -0.84,-106.5664 l -302.578,-295.0137 c 81.112,-48.8639 149.068,-118.5586 195.449,-201.7715 61.491,-110.3251 82.841,-240.4065 59.838,-364.5996 -18.798,-101.4853 -66.546,-196.3716 -136.844,-271.9414 -70.297,-75.5701 -161.493,-130.0436 -261.356,-156.1191 a 75.0075,75.0075 0 0 0 -18.947,-2.4336 l -841.328,0 0,0 a 75.0075,75.0075 0 0 0 -17.328,1.8614 l -50.504,-49.2422 a 75.0075,75.0075 0 0 0 -54.408,-21.2676 z m 3.232,180.8672 800.633,780.6172 -1093.703,0 a 75.0075,75.0075 0 1 0 0,150 l 1247.549,0 311.365,303.582 -1257.93,1265.8379 -1226.283,-1257.9316 1218.369,-1242.1055 z m 253.617,37.7812 696.44,0 c 68.487,19.6282 132.278,58.6044 180.754,110.7168 50.52,54.3088 85.67,124.1634 99.178,197.0957 16.467,88.8975 0.647,185.2804 -43.37,264.252 -39.611,71.0671 -103.252,130.0575 -177.007,165.0293 l -755.995,-737.0938 z m -1166.822,485.0352 c 55.956,0.3504 111.973,8.9139 165.461,25.2871 l -607.461,619.293 a 75.0075,75.0075 0 0 0 -60.232,74.5468 l 0,1756.961 c -53.619,33.8577 -120.542,53.9191 -161.494,42.0703 -77.858,-57.7373 -155.718,-115.4738 -233.575,-173.2109 -12.591,-24.0364 -15.969,-51.3615 -15.427,-89.1719 0.602,-42.1041 7.843,-93.5998 3.384,-151.9922 l 0,-1456.4043 c 106.084,-345.8652 450.187,-580.9808 826.952,-641.877 27.24,-3.856 54.808,-5.6746 82.392,-5.5019 z" id="path4544" style="color:#000000;font-style:normal;font-variant:normal;font-weight:normal;font-stretch:normal;font-size:medium;line-height:normal;font-family:sans-serif;text-indent:0;text-align:start;text-decoration:none;text-decoration-line:none;text-decoration-style:solid;text-decoration-color:#000000;letter-spacing:normal;word-spacing:normal;text-transform:none;direction:ltr;block-progression:tb;writing-mode:lr-tb;baseline-shift:baseline;text-anchor:start;white-space:normal;clip-rule:nonzero;display:inline;overflow:visible;visibility:visible;opacity:1;isolation:auto;mix-blend-mode:normal;color-interpolation:sRGB;color-interpolation-filters:linearRGB;solid-color:#000000;solid-opacity:1;fill:#6c6da7;fill-opacity:1;fill-rule:evenodd;stroke:none;stroke-width:150;stroke-linecap:round;stroke-linejoin:round;stroke-miterlimit:4;stroke-dasharray:none;stroke-dashoffset:0;stroke-opacity:1;color-rendering:auto;image-rendering:auto;shape-rendering:auto;text-rendering:auto;enable-background:accumulate" transform="translate(-5954.7863,-4172.3044)"/><path d="m 28458.242,2153.9629 c -27.584,-0.1727 -55.152,1.6459 -82.392,5.5019 -376.765,60.8962 -720.868,296.0118 -826.952,641.877 l 0,1456.4043 c 4.459,58.3924 -2.782,109.8881 -3.384,151.9922 -0.542,37.8104 2.836,65.1355 15.427,89.1719 77.857,57.7371 155.717,115.4736 233.575,173.2109 40.952,11.8488 107.875,-8.2126 161.494,-42.0703 l 0,-1756.961 a 75.0075,75.0075 0 0 1 60.232,-74.5468 l 607.461,-619.293 c -53.488,-16.3732 -109.505,-24.9367 -165.461,-25.2871 z m 397.207,3.2344 -702.371,716.0547 1226.283,1257.9316 1257.93,-1265.8379 -311.365,-303.582 -1247.549,0 a 75.0075,75.0075 0 1 1 0,-150 l 1093.703,0 -101.937,-99.3887 c -24.383,-4.6982 -49.001,-8.1837 -73.729,-10.4316 -69.674,-6.3341 -140.258,-2.8983 -208.914,10.5566 -58.456,11.456 -115.282,29.9289 -173.125,44.1602 -57.842,14.2309 -117.603,24.2552 -176.875,18.3398 -38.616,-3.8539 -76.343,-14.4781 -112.426,-28.7637 -36.348,-14.3906 -71.15,-32.4181 -105.246,-51.5429 -34.023,-19.084 -67.458,-39.2104 -101.672,-57.9493 -34.113,-18.6838 -69.081,-36.0112 -105.656,-49.2441 -49.785,-18.0125 -102.388,-28.132 -155.289,-30.248 -0.587,-0.023 -1.175,-0.033 -1.762,-0.055 z" id="path5523" style="fill:#f2a2bb;fill-opacity:1;fill-rule:evenodd;stroke:none;stroke-width:1px;stroke-linecap:butt;stroke-linejoin:miter;stroke-opacity:1" transform="translate(-5954.7863,-4172.3044)"/></g></g></svg>