<?xml version="1.0" ?><!DOCTYPE svg  PUBLIC '-//W3C//DTD SVG 1.1//EN'  'http://www.w3.org/Graphics/SVG/1.1/DTD/svg11.dtd'><svg enable-background="new 0 0 512 512" height="512px" version="1.1" viewBox="0 0 512 512" width="512px" xml:space="preserve" xmlns="http://www.w3.org/2000/svg" xmlns:xlink="http://www.w3.org/1999/xlink"><g><g id="grid"/><g id="Layer_3"><g id="eraser_1_"><linearGradient gradientUnits="userSpaceOnUse" id="shadow_1_" x1="250.4731" x2="250.4731" y1="21.8467" y2="512.0005"><stop offset="0" style="stop-color:#4F4C4D;stop-opacity:0.3"/><stop offset="0.0568" style="stop-color:#3B393A;stop-opacity:0.3398"/><stop offset="0.1397" style="stop-color:#252424;stop-opacity:0.3978"/><stop offset="0.2375" style="stop-color:#141414;stop-opacity:0.4663"/><stop offset="0.3586" style="stop-color:#090808;stop-opacity:0.551"/><stop offset="0.5284" style="stop-color:#020202;stop-opacity:0.6699"/><stop offset="1" style="stop-color:#000000"/></linearGradient><path d="M329,233.771v-9.979c0-0.055,0.4-0.113,0.729-0.167      c3.516-0.582,6.037-3.904,5.456-7.421c-0.52-3.149-3.185-5.364-6.185-5.382v-9.981c0-0.054,0.4-0.113,0.729-0.167      c3.516-0.582,6.037-3.904,5.456-7.421c-0.521-3.149-3.185-5.364-6.185-5.38v-3c0,0-0.301,0.001-0.318,0.003l-0.147-8.413      c0.347-0.057,0.639-0.118,0.98-0.174c3.516-0.582,5.86-3.904,5.278-7.421c-0.523-3.165-3.28-5.386-6.391-5.382l-0.017-9.971      c0.353-0.058,0.717-0.119,1.062-0.176c3.516-0.582,6.21-3.904,5.628-7.421c-0.524-3.169-3.075-5.394-6.075-5.381      c0-0.043,0-0.087,0-0.131c0-0.12,0-0.239,0-0.359c0-1.886,0-3.773,0-5.659c0-0.479,0-0.956,0-1.435      c0-15.668-0.842-31.437-0.863-47.15c0.004-5.103-0.076-10.201,0.086-15.286c0.118-3.679,0.208-7.645,0.191-11.679      c0.047-8.527-0.646-17.483-4.252-24.819c-4.426-9.001-13.74-10.368-22.508-10.365c-14.72,0.005-29.463-0.823-44.199-0.842      c-6.123-0.008-12.252-0.108-18.373-0.319c-10.157-0.349-20.274-1.021-30.41-0.383c-10.599,0.667-22.024,2.03-28.479,8.536      c-5.244,5.286-5.823,9.572-6.658,16.716c-0.643,5.504-0.754,11.034-0.708,16.569c0.015,5.713,0.218,11.433,0.22,17.137      c-0.041,10.854-0.175,21.708-0.207,32.562c-0.027,8.75-0.228,17.497-0.364,26.242c-3.156-0.167-6.036,1.973-6.671,5.159      c-0.695,3.497,1.575,6.896,5.071,7.591c0.401,0.08,0.81,0.161,1.221,0.24l0.023,9.927c-3.016,0.005-5.705,2.125-6.316,5.193      c-0.696,3.496,1.574,6.896,5.071,7.591c0.419,0.083,0.846,0.167,1.276,0.251l0.027,11.355c-3.039-0.021-5.758,2.101-6.374,5.187      c-0.696,3.497,1.574,6.896,5.071,7.591c0.438,0.086,0.884,0.175,1.334,0.262l0.023,9.916c-3.061-0.048-5.81,2.076-6.429,5.181      c-0.696,3.497,1.574,6.896,5.071,7.591c0.456,0.09,0.919,0.182,1.389,0.273l0.024,9.91c-3.079-0.074-5.861,2.052-6.483,5.178      c-0.696,3.496,1.817,6.895,5.314,7.589c0.854,0.169,1.881,0.342,2.881,0.514V512h155V246.741c0-0.055,0.4-0.112,0.729-0.167      c3.518-0.582,6.037-3.904,5.456-7.421C334.663,236.005,332,233.791,329,233.771z" fill="url(#shadow_1_)" id="shadow_6_"/><linearGradient gradientUnits="userSpaceOnUse" id="pencil_1_" x1="186" x2="340" y1="348.4365" y2="348.4365"><stop offset="0" style="stop-color:#D4A145"/><stop offset="0.1792" style="stop-color:#D5A450"/><stop offset="0.333" style="stop-color:#D1981E"/><stop offset="0.3944" style="stop-color:#EDAB1D"/><stop offset="0.7262" style="stop-color:#FAB835"/><stop offset="0.8393" style="stop-color:#FBCA6B"/><stop offset="0.9357" style="stop-color:#F7B93F"/></linearGradient><path d="M340,512H186V184.873c0,0,57.636,5.738,76.522,5.738      c19.842,0,77.478-5.738,77.478-5.738V512z" fill="url(#pencil_1_)" id="pencil"/><g id="eraser"><linearGradient gradientUnits="userSpaceOnUse" id="SVGID_1_" x1="183.9492" x2="339.6475" y1="86.8638" y2="86.8638"><stop offset="0" style="stop-color:#B85D53"/><stop offset="0.3791" style="stop-color:#BF4940"/><stop offset="0.7626" style="stop-color:#D15146"/><stop offset="1" style="stop-color:#ED867A"/></linearGradient><path d="M339.428,141.481c0,4.951-4.351,8.965-9.717,8.965h-134.49c-5.367,0-11.272-4.014-11.272-8.965       c0.136-8.803,0.339-17.608,0.366-26.416c0.033-11.064,0.173-22.128,0.211-33.191c0.038-11.018-0.799-22.098,0.483-33.076       c0.835-7.145,1.414-11.431,6.658-16.716c6.455-6.506,17.879-7.869,28.478-8.536c10.135-0.638,20.25,0.033,30.407,0.383       c6.121,0.21,12.246,0.311,18.369,0.319c14.736,0.019,29.47,0.847,44.189,0.842c8.768-0.003,18.064,1.364,22.491,10.365       c5.102,10.378,4.07,24.007,3.715,35.063c-0.683,21.214,0.11,42.635,0.11,63.87       C339.428,136.752,339.428,139.117,339.428,141.481z" fill="url(#SVGID_1_)"/><linearGradient gradientUnits="userSpaceOnUse" id="SVGID_2_" x1="261.7988" x2="261.7988" y1="21.8467" y2="149.0122"><stop offset="0.0215" style="stop-color:#F8BFB5"/><stop offset="0.0815" style="stop-color:#EEA69D;stop-opacity:0.9387"/><stop offset="0.1702" style="stop-color:#E2897F;stop-opacity:0.8481"/><stop offset="0.2687" style="stop-color:#D97067;stop-opacity:0.7474"/><stop offset="0.3791" style="stop-color:#D15D55;stop-opacity:0.6345"/><stop offset="0.5083" style="stop-color:#CC5048;stop-opacity:0.5025"/><stop offset="0.6736" style="stop-color:#C94840;stop-opacity:0.3336"/><stop offset="1" style="stop-color:#C8463E;stop-opacity:0"/></linearGradient><path d="M339.428,140.047c0,4.951-4.351,8.965-9.717,8.965h-134.49c-5.367,0-11.272-4.014-11.272-8.965       c0.136-8.802,0.339-17.608,0.366-26.416c0.033-11.064,0.173-22.128,0.211-33.191c0.038-11.018-0.799-22.098,0.483-33.076       c0.835-7.145,1.414-11.43,6.658-16.716c6.455-6.506,17.879-7.869,28.478-8.536c10.135-0.638,20.25,0.034,30.407,0.383       c6.121,0.21,12.246,0.311,18.369,0.319c14.736,0.019,29.47,0.847,44.189,0.842c8.768-0.002,18.064,1.364,22.491,10.365       c5.102,10.378,4.07,24.007,3.715,35.063c-0.683,21.213,0.11,42.634,0.11,63.87       C339.428,135.318,339.428,137.683,339.428,140.047z" fill="url(#SVGID_2_)"/></g><g id="metal_border"><linearGradient gradientUnits="userSpaceOnUse" id="border_1_" x1="183.5547" x2="339.9062" y1="195.7031" y2="195.7031"><stop offset="0.0921" style="stop-color:#45423D"/><stop offset="0.2549" style="stop-color:#99918A"/><stop offset="0.3495" style="stop-color:#A8A5A2"/><stop offset="0.5446" style="stop-color:#B0A698"/><stop offset="0.6715" style="stop-color:#B1A799"/><stop offset="0.7789" style="stop-color:#ACA395"/><stop offset="0.9017" style="stop-color:#58524D"/></linearGradient><path d="M339.906,244.219c0,0-23.429,7.962-77.937,6.632       c-38.539-0.94-78.175-4.898-78.175-4.898l-0.24-100.433c0,0,19.9,7.281,40.403,9.714c16.257,1.93,32.677,0.018,41.239,0.512       c13.299,0.765,33.828-1.534,49.129-5.114c15.923-3.726,25.52-10.227,25.52-10.227L339.906,244.219z" fill="url(#border_1_)" id="border"/><radialGradient cx="261.7383" cy="221.0483" gradientTransform="matrix(1 0 0 0.2 0 176.8387)" gradientUnits="userSpaceOnUse" id="SVGID_3_" r="60.2238"><stop offset="0" style="stop-color:#AFA698"/><stop offset="0.1544" style="stop-color:#B0A698"/><stop offset="0.5106" style="stop-color:#B0A698"/><stop offset="1" style="stop-color:#56514C"/></radialGradient><path d="M268.191,231.025c-1.321,0-2.655-0.006-4.009-0.018c-42.621-0.382-66.121-4.021-81.832-7.147       c-3.497-0.696-5.767-4.094-5.071-7.59c0.695-3.497,4.091-5.771,7.59-5.071c15.157,3.016,37.883,6.526,79.427,6.899       c34.766,0.312,58.686-3.643,74.515-6.259c3.519-0.58,6.84,1.798,7.421,5.315c0.582,3.517-1.798,6.84-5.315,7.421       C325.264,227.163,301.906,231.025,268.191,231.025z" fill="url(#SVGID_3_)"/><radialGradient cx="261.7383" cy="198.0483" gradientTransform="matrix(1 0 0 0.2 0 158.4387)" gradientUnits="userSpaceOnUse" id="SVGID_4_" r="60.2238"><stop offset="0" style="stop-color:#AFA698"/><stop offset="0.1544" style="stop-color:#B0A698"/><stop offset="0.5106" style="stop-color:#B0A698"/><stop offset="1" style="stop-color:#56514C"/></radialGradient><path d="M268.191,208.025c-1.321,0-2.655-0.006-4.009-0.018c-42.621-0.382-66.121-4.021-81.832-7.147       c-3.497-0.696-5.767-4.094-5.071-7.59c0.695-3.497,4.091-5.771,7.59-5.071c15.157,3.016,37.883,6.526,79.427,6.899       c34.766,0.312,58.686-3.643,74.515-6.259c3.519-0.58,6.84,1.798,7.421,5.315c0.582,3.517-1.798,6.84-5.315,7.421       C325.264,204.163,301.906,208.025,268.191,208.025z" fill="url(#SVGID_4_)"/><radialGradient cx="261.7383" cy="174.0483" gradientTransform="matrix(1 0 0 0.2 0 139.2387)" gradientUnits="userSpaceOnUse" id="SVGID_5_" r="60.2238"><stop offset="0" style="stop-color:#AFA698"/><stop offset="0.1544" style="stop-color:#B0A698"/><stop offset="0.5106" style="stop-color:#B0A698"/><stop offset="1" style="stop-color:#56514C"/></radialGradient><path d="M268.191,184.025c-1.321,0-2.655-0.006-4.009-0.018c-42.621-0.382-66.121-4.021-81.832-7.147       c-3.497-0.696-5.767-4.094-5.071-7.59c0.695-3.497,4.091-5.771,7.59-5.071c15.157,3.016,37.883,6.526,79.427,6.899       c34.766,0.312,58.686-3.643,74.515-6.259c3.519-0.58,6.84,1.798,7.421,5.315c0.582,3.517-1.798,6.84-5.315,7.421       C325.264,180.163,301.906,184.025,268.191,184.025z" fill="url(#SVGID_5_)"/><radialGradient cx="261.7383" cy="151.0483" gradientTransform="matrix(1 0 0 0.2 0 120.8387)" gradientUnits="userSpaceOnUse" id="SVGID_6_" r="60.2238"><stop offset="0" style="stop-color:#AFA698"/><stop offset="0.1544" style="stop-color:#B0A698"/><stop offset="0.5106" style="stop-color:#B0A698"/><stop offset="1" style="stop-color:#56514C"/></radialGradient><path d="M268.191,161.025c-1.321,0-2.655-0.006-4.009-0.018c-42.621-0.382-66.121-4.021-81.832-7.147       c-3.497-0.696-5.767-4.094-5.071-7.59c0.695-3.497,4.091-5.771,7.59-5.071c15.157,3.016,37.883,6.526,79.427,6.899       c34.766,0.312,58.686-3.643,74.515-6.259c3.519-0.58,6.84,1.798,7.421,5.315c0.582,3.517-1.798,6.84-5.315,7.421       C325.264,157.163,301.906,161.025,268.191,161.025z" fill="url(#SVGID_6_)"/><radialGradient cx="261.7383" cy="243.0483" gradientTransform="matrix(1 0 0 0.2 0 194.4387)" gradientUnits="userSpaceOnUse" id="SVGID_7_" r="60.2238"><stop offset="0" style="stop-color:#AFA698"/><stop offset="0.1544" style="stop-color:#B0A698"/><stop offset="0.5106" style="stop-color:#B0A698"/><stop offset="1" style="stop-color:#56514C"/></radialGradient><path d="M268.191,253.025c-1.321,0-2.655-0.006-4.009-0.018c-42.621-0.382-66.121-4.021-81.832-7.147       c-3.497-0.696-5.767-4.094-5.071-7.59c0.695-3.497,4.091-5.771,7.59-5.071c15.157,3.016,37.883,6.526,79.427,6.899       c34.766,0.312,58.686-3.643,74.515-6.259c3.519-0.58,6.84,1.798,7.421,5.315c0.582,3.517-1.798,6.84-5.315,7.421       C325.264,249.163,301.906,253.025,268.191,253.025z" fill="url(#SVGID_7_)"/></g></g></g></g></svg>